<mxfile host="app.diagrams.net" modified="2024-06-07T14:33:07.308Z" agent="Mozilla/5.0 (Windows NT 10.0; Win64; x64) AppleWebKit/537.36 (KHTML, like Gecko) Chrome/125.0.0.0 Safari/537.36" etag="EFoUqXxjPWFFmPu-w_gt" version="24.4.14" type="device">
  <diagram name="Page-1" id="aLXLC-gzcM06G5DPoIjw">
    <mxGraphModel dx="2815" dy="803" grid="0" gridSize="10" guides="1" tooltips="1" connect="1" arrows="1" fold="1" page="0" pageScale="1" pageWidth="291" pageHeight="413" math="0" shadow="0">
      <root>
        <mxCell id="0" />
        <mxCell id="1" parent="0" />
        <mxCell id="Frr1hfQ2MMtZjARR2G04-27" value="&lt;font style=&quot;font-size: 30px;&quot;&gt;Plante_id&lt;br&gt;Commande_id&lt;br&gt;quantite&lt;/font&gt;" style="ellipse;shape=doubleEllipse;whiteSpace=wrap;html=1;hachureGap=4;fontFamily=Architects Daughter;fontSource=https%3A%2F%2Ffonts.googleapis.com%2Fcss%3Ffamily%3DArchitects%2BDaughter;fontSize=20;" parent="1" vertex="1">
          <mxGeometry x="-390" y="95" width="400" height="210" as="geometry" />
        </mxCell>
        <mxCell id="Frr1hfQ2MMtZjARR2G04-2" value="Produits" style="swimlane;whiteSpace=wrap;html=1;hachureGap=4;fontFamily=Architects Daughter;fontSource=https%3A%2F%2Ffonts.googleapis.com%2Fcss%3Ffamily%3DArchitects%2BDaughter;fontSize=20;startSize=23;" parent="1" vertex="1">
          <mxGeometry x="-750" y="10" width="265" height="324" as="geometry" />
        </mxCell>
        <mxCell id="Frr1hfQ2MMtZjARR2G04-3" value="&lt;font face=&quot;Helvetica&quot; style=&quot;font-size: 21px;&quot;&gt;nom_produit&lt;/font&gt;" style="text;html=1;align=center;verticalAlign=middle;resizable=0;points=[];autosize=1;strokeColor=none;fillColor=none;fontSize=21;fontFamily=Architects Daughter;" parent="Frr1hfQ2MMtZjARR2G04-2" vertex="1">
          <mxGeometry x="63" y="31" width="135" height="38" as="geometry" />
        </mxCell>
        <mxCell id="Frr1hfQ2MMtZjARR2G04-4" value="&lt;font face=&quot;Helvetica&quot; style=&quot;font-size: 21px;&quot;&gt;description _produit&lt;/font&gt;" style="text;html=1;align=center;verticalAlign=middle;resizable=0;points=[];autosize=1;strokeColor=none;fillColor=none;fontSize=21;fontFamily=Architects Daughter;" parent="Frr1hfQ2MMtZjARR2G04-2" vertex="1">
          <mxGeometry x="30" y="61" width="201" height="38" as="geometry" />
        </mxCell>
        <mxCell id="Frr1hfQ2MMtZjARR2G04-5" value="&lt;font face=&quot;Helvetica&quot; style=&quot;font-size: 21px;&quot;&gt;Prix_produit&lt;/font&gt;" style="text;html=1;align=center;verticalAlign=middle;resizable=0;points=[];autosize=1;strokeColor=none;fillColor=none;fontSize=21;fontFamily=Architects Daughter;" parent="Frr1hfQ2MMtZjARR2G04-2" vertex="1">
          <mxGeometry x="65" y="91" width="130" height="38" as="geometry" />
        </mxCell>
        <mxCell id="Frr1hfQ2MMtZjARR2G04-6" value="&lt;font face=&quot;Helvetica&quot; style=&quot;font-size: 21px;&quot;&gt;Stock&amp;nbsp;&lt;/font&gt;" style="text;html=1;align=center;verticalAlign=middle;resizable=0;points=[];autosize=1;strokeColor=none;fillColor=none;fontSize=21;fontFamily=Architects Daughter;" parent="Frr1hfQ2MMtZjARR2G04-2" vertex="1">
          <mxGeometry x="92" y="121" width="76" height="38" as="geometry" />
        </mxCell>
        <mxCell id="v7OVMKoYqWH1p72j22wS-21" value="image" style="text;html=1;align=center;verticalAlign=middle;resizable=0;points=[];autosize=1;strokeColor=none;fillColor=none;fontSize=21;" parent="Frr1hfQ2MMtZjARR2G04-2" vertex="1">
          <mxGeometry x="93" y="157" width="75" height="37" as="geometry" />
        </mxCell>
        <mxCell id="v7OVMKoYqWH1p72j22wS-26" value="caractÃ¨ristique" style="text;html=1;align=center;verticalAlign=middle;resizable=0;points=[];autosize=1;strokeColor=none;fillColor=none;fontSize=21;" parent="Frr1hfQ2MMtZjARR2G04-2" vertex="1">
          <mxGeometry x="55.5" y="197" width="155" height="37" as="geometry" />
        </mxCell>
        <mxCell id="v7OVMKoYqWH1p72j22wS-38" value="entretien" style="text;html=1;align=center;verticalAlign=middle;resizable=0;points=[];autosize=1;strokeColor=none;fillColor=none;fontSize=21;" parent="Frr1hfQ2MMtZjARR2G04-2" vertex="1">
          <mxGeometry x="80" y="227" width="100" height="37" as="geometry" />
        </mxCell>
        <mxCell id="v7OVMKoYqWH1p72j22wS-49" value="categorie" style="text;html=1;align=center;verticalAlign=middle;resizable=0;points=[];autosize=1;strokeColor=none;fillColor=none;fontSize=21;" parent="Frr1hfQ2MMtZjARR2G04-2" vertex="1">
          <mxGeometry x="78" y="257" width="104" height="37" as="geometry" />
        </mxCell>
        <mxCell id="v7OVMKoYqWH1p72j22wS-6" value="lot" style="text;html=1;align=center;verticalAlign=middle;resizable=0;points=[];autosize=1;strokeColor=none;fillColor=none;fontSize=21;" parent="Frr1hfQ2MMtZjARR2G04-2" vertex="1">
          <mxGeometry x="110" y="287" width="40" height="37" as="geometry" />
        </mxCell>
        <mxCell id="Frr1hfQ2MMtZjARR2G04-8" value="Client" style="swimlane;whiteSpace=wrap;html=1;hachureGap=4;fontFamily=Architects Daughter;fontSource=https%3A%2F%2Ffonts.googleapis.com%2Fcss%3Ffamily%3DArchitects%2BDaughter;fontSize=20;" parent="1" vertex="1">
          <mxGeometry x="45" y="590" width="290" height="240" as="geometry" />
        </mxCell>
        <mxCell id="Frr1hfQ2MMtZjARR2G04-9" value="&lt;font face=&quot;Helvetica&quot; style=&quot;font-size: 21px;&quot;&gt;nom&lt;/font&gt;" style="text;html=1;align=center;verticalAlign=middle;resizable=0;points=[];autosize=1;strokeColor=none;fillColor=none;fontSize=21;fontFamily=Architects Daughter;" parent="Frr1hfQ2MMtZjARR2G04-8" vertex="1">
          <mxGeometry x="111" y="51" width="59" height="38" as="geometry" />
        </mxCell>
        <mxCell id="Frr1hfQ2MMtZjARR2G04-10" value="&lt;font face=&quot;Helvetica&quot; style=&quot;font-size: 21px;&quot;&gt;prenom&lt;/font&gt;" style="text;html=1;align=center;verticalAlign=middle;resizable=0;points=[];autosize=1;strokeColor=none;fillColor=none;fontSize=21;fontFamily=Architects Daughter;" parent="Frr1hfQ2MMtZjARR2G04-8" vertex="1">
          <mxGeometry x="96" y="81" width="89" height="38" as="geometry" />
        </mxCell>
        <mxCell id="Frr1hfQ2MMtZjARR2G04-11" value="&lt;font face=&quot;Helvetica&quot; style=&quot;font-size: 21px;&quot;&gt;adresse-mail&lt;/font&gt;" style="text;html=1;align=center;verticalAlign=middle;resizable=0;points=[];autosize=1;strokeColor=none;fillColor=none;fontSize=21;fontFamily=Architects Daughter;" parent="Frr1hfQ2MMtZjARR2G04-8" vertex="1">
          <mxGeometry x="71" y="111" width="138" height="38" as="geometry" />
        </mxCell>
        <mxCell id="Frr1hfQ2MMtZjARR2G04-12" value="&lt;font face=&quot;Helvetica&quot; style=&quot;font-size: 21px;&quot;&gt;mot_de_passe&lt;/font&gt;" style="text;html=1;align=center;verticalAlign=middle;resizable=0;points=[];autosize=1;strokeColor=none;fillColor=none;fontSize=21;fontFamily=Architects Daughter;" parent="Frr1hfQ2MMtZjARR2G04-8" vertex="1">
          <mxGeometry x="67" y="171" width="156" height="38" as="geometry" />
        </mxCell>
        <mxCell id="Frr1hfQ2MMtZjARR2G04-13" value="&lt;font face=&quot;Helvetica&quot; style=&quot;font-size: 21px;&quot;&gt;telephone&lt;/font&gt;" style="text;html=1;align=center;verticalAlign=middle;resizable=0;points=[];autosize=1;strokeColor=none;fillColor=none;fontSize=21;fontFamily=Architects Daughter;" parent="Frr1hfQ2MMtZjARR2G04-8" vertex="1">
          <mxGeometry x="90" y="141" width="110" height="38" as="geometry" />
        </mxCell>
        <mxCell id="LkYBel29slSREBmKHJnN-1" value="id_client" style="text;html=1;align=center;verticalAlign=middle;resizable=0;points=[];autosize=1;strokeColor=none;fillColor=none;fontSize=21;" parent="Frr1hfQ2MMtZjARR2G04-8" vertex="1">
          <mxGeometry x="93" y="27" width="95" height="37" as="geometry" />
        </mxCell>
        <mxCell id="Frr1hfQ2MMtZjARR2G04-28" value="&lt;b&gt;Details_Commande&lt;br&gt;&lt;/b&gt;" style="text;html=1;align=center;verticalAlign=middle;resizable=0;points=[];autosize=1;strokeColor=none;fillColor=none;fontSize=20;fontFamily=Architects Daughter;" parent="1" vertex="1">
          <mxGeometry x="-285" y="50" width="190" height="40" as="geometry" />
        </mxCell>
        <mxCell id="Frr1hfQ2MMtZjARR2G04-30" value="&lt;font style=&quot;font-size: 12px;&quot; face=&quot;Helvetica&quot;&gt;1,1&lt;/font&gt;" style="text;html=1;align=center;verticalAlign=middle;resizable=0;points=[];autosize=1;strokeColor=none;fillColor=none;fontSize=20;fontFamily=Architects Daughter;" parent="1" vertex="1">
          <mxGeometry x="130" y="365" width="40" height="40" as="geometry" />
        </mxCell>
        <mxCell id="Frr1hfQ2MMtZjARR2G04-34" value="0,n" style="text;html=1;align=center;verticalAlign=middle;resizable=0;points=[];autosize=1;strokeColor=none;fillColor=none;fontSize=20;fontFamily=Architects Daughter;" parent="1" vertex="1">
          <mxGeometry x="84.69" y="540" width="50" height="40" as="geometry" />
        </mxCell>
        <mxCell id="kiaXTEcKel--K1FoqDEo-6" value="1,n" style="text;html=1;align=center;verticalAlign=middle;resizable=0;points=[];autosize=1;strokeColor=none;fillColor=none;" parent="1" vertex="1">
          <mxGeometry x="19.999999999999996" y="210" width="40" height="30" as="geometry" />
        </mxCell>
        <mxCell id="kiaXTEcKel--K1FoqDEo-8" value="commande" style="swimlane;whiteSpace=wrap;html=1;" parent="1" vertex="1">
          <mxGeometry x="84.69" y="60" width="210.62" height="305" as="geometry" />
        </mxCell>
        <mxCell id="kiaXTEcKel--K1FoqDEo-12" value="Date_commande" style="text;html=1;align=center;verticalAlign=middle;resizable=0;points=[];autosize=1;strokeColor=none;fillColor=none;fontSize=21;" parent="kiaXTEcKel--K1FoqDEo-8" vertex="1">
          <mxGeometry x="13" y="60" width="178" height="37" as="geometry" />
        </mxCell>
        <mxCell id="kiaXTEcKel--K1FoqDEo-13" value="Etat_Commande" style="text;html=1;align=center;verticalAlign=middle;resizable=0;points=[];autosize=1;strokeColor=none;fillColor=none;fontSize=21;" parent="kiaXTEcKel--K1FoqDEo-8" vertex="1">
          <mxGeometry x="12" y="87" width="176" height="37" as="geometry" />
        </mxCell>
        <mxCell id="LkYBel29slSREBmKHJnN-2" value="total" style="text;html=1;align=center;verticalAlign=middle;resizable=0;points=[];autosize=1;strokeColor=none;fillColor=none;fontSize=21;" parent="kiaXTEcKel--K1FoqDEo-8" vertex="1">
          <mxGeometry x="71" y="117" width="58" height="37" as="geometry" />
        </mxCell>
        <mxCell id="LkYBel29slSREBmKHJnN-5" value="&lt;font style=&quot;font-size: 21px;&quot;&gt;id_commande&lt;/font&gt;" style="text;html=1;align=center;verticalAlign=middle;resizable=0;points=[];autosize=1;strokeColor=none;fillColor=none;" parent="kiaXTEcKel--K1FoqDEo-8" vertex="1">
          <mxGeometry x="25" y="27" width="150" height="37" as="geometry" />
        </mxCell>
        <mxCell id="kiaXTEcKel--K1FoqDEo-19" value="1,1" style="text;html=1;align=center;verticalAlign=middle;resizable=0;points=[];autosize=1;strokeColor=none;fillColor=none;" parent="1" vertex="1">
          <mxGeometry x="295.31" y="250" width="40" height="30" as="geometry" />
        </mxCell>
        <mxCell id="AJ8ExckoHPWglMIkNY3l-1" value="Adresse" style="swimlane;whiteSpace=wrap;html=1;startSize=23;" parent="1" vertex="1">
          <mxGeometry x="500" y="85" width="200" height="280" as="geometry" />
        </mxCell>
        <mxCell id="4F924PSeMsaonOZ9PlPk-1" value="nom complet" style="text;html=1;align=center;verticalAlign=middle;resizable=0;points=[];autosize=1;strokeColor=none;fillColor=none;" parent="AJ8ExckoHPWglMIkNY3l-1" vertex="1">
          <mxGeometry x="55" y="30" width="90" height="30" as="geometry" />
        </mxCell>
        <mxCell id="LkYBel29slSREBmKHJnN-7" value="adresse" style="text;html=1;align=center;verticalAlign=middle;resizable=0;points=[];autosize=1;strokeColor=none;fillColor=none;" parent="AJ8ExckoHPWglMIkNY3l-1" vertex="1">
          <mxGeometry x="65" y="60" width="70" height="30" as="geometry" />
        </mxCell>
        <mxCell id="LkYBel29slSREBmKHJnN-8" value="code_postal" style="text;html=1;align=center;verticalAlign=middle;resizable=0;points=[];autosize=1;strokeColor=none;fillColor=none;" parent="AJ8ExckoHPWglMIkNY3l-1" vertex="1">
          <mxGeometry x="55" y="85" width="90" height="30" as="geometry" />
        </mxCell>
        <mxCell id="LkYBel29slSREBmKHJnN-11" value="ville" style="text;html=1;align=center;verticalAlign=middle;resizable=0;points=[];autosize=1;strokeColor=none;fillColor=none;" parent="AJ8ExckoHPWglMIkNY3l-1" vertex="1">
          <mxGeometry x="80" y="115" width="40" height="30" as="geometry" />
        </mxCell>
        <mxCell id="LkYBel29slSREBmKHJnN-12" value="pays" style="text;html=1;align=center;verticalAlign=middle;resizable=0;points=[];autosize=1;strokeColor=none;fillColor=none;" parent="AJ8ExckoHPWglMIkNY3l-1" vertex="1">
          <mxGeometry x="75" y="145" width="50" height="30" as="geometry" />
        </mxCell>
        <mxCell id="kC049FplpGasjoPoZHOe-8" value="instructions livraison" style="text;html=1;align=center;verticalAlign=middle;resizable=0;points=[];autosize=1;strokeColor=none;fillColor=none;" parent="AJ8ExckoHPWglMIkNY3l-1" vertex="1">
          <mxGeometry x="35" y="170" width="130" height="30" as="geometry" />
        </mxCell>
        <mxCell id="kC049FplpGasjoPoZHOe-22" value="client_id" style="text;html=1;align=center;verticalAlign=middle;resizable=0;points=[];autosize=1;strokeColor=none;fillColor=none;" parent="AJ8ExckoHPWglMIkNY3l-1" vertex="1">
          <mxGeometry x="65" y="200" width="70" height="30" as="geometry" />
        </mxCell>
        <mxCell id="AJ8ExckoHPWglMIkNY3l-6" value="0,n" style="text;html=1;align=center;verticalAlign=middle;resizable=0;points=[];autosize=1;strokeColor=none;fillColor=none;" parent="1" vertex="1">
          <mxGeometry x="-455" y="170" width="40" height="30" as="geometry" />
        </mxCell>
        <mxCell id="AJ8ExckoHPWglMIkNY3l-7" value="0,n" style="text;html=1;align=center;verticalAlign=middle;resizable=0;points=[];autosize=1;strokeColor=none;fillColor=none;" parent="1" vertex="1">
          <mxGeometry x="350" y="720" width="40" height="30" as="geometry" />
        </mxCell>
        <mxCell id="LkYBel29slSREBmKHJnN-13" value="" style="endArrow=none;html=1;rounded=0;entryX=0;entryY=0.5;entryDx=0;entryDy=0;exitX=1;exitY=0.75;exitDx=0;exitDy=0;" parent="1" source="Frr1hfQ2MMtZjARR2G04-2" target="Frr1hfQ2MMtZjARR2G04-27" edge="1">
          <mxGeometry width="50" height="50" relative="1" as="geometry">
            <mxPoint x="-455" y="199.01" as="sourcePoint" />
            <mxPoint x="-374" y="160.98000000000002" as="targetPoint" />
          </mxGeometry>
        </mxCell>
        <mxCell id="LkYBel29slSREBmKHJnN-14" value="" style="endArrow=none;html=1;rounded=0;exitX=1;exitY=0.5;exitDx=0;exitDy=0;" parent="1" source="Frr1hfQ2MMtZjARR2G04-27" edge="1">
          <mxGeometry width="50" height="50" relative="1" as="geometry">
            <mxPoint x="-10.000000000000181" y="190.50999999999996" as="sourcePoint" />
            <mxPoint x="80" y="200" as="targetPoint" />
          </mxGeometry>
        </mxCell>
        <mxCell id="LkYBel29slSREBmKHJnN-15" value="" style="endArrow=none;html=1;rounded=0;" parent="1" edge="1">
          <mxGeometry width="50" height="50" relative="1" as="geometry">
            <mxPoint x="295.31" y="279" as="sourcePoint" />
            <mxPoint x="495.31" y="279" as="targetPoint" />
          </mxGeometry>
        </mxCell>
        <mxCell id="Frr1hfQ2MMtZjARR2G04-36" value="&lt;font style=&quot;font-size: 25px;&quot;&gt;Appartenir&lt;/font&gt;" style="ellipse;whiteSpace=wrap;html=1;aspect=fixed;hachureGap=4;fontFamily=Architects Daughter;fontSource=https%3A%2F%2Ffonts.googleapis.com%2Fcss%3Ffamily%3DArchitects%2BDaughter;fontSize=20;" parent="1" vertex="1">
          <mxGeometry x="130" y="413" width="127" height="127" as="geometry" />
        </mxCell>
        <mxCell id="LkYBel29slSREBmKHJnN-19" value="&lt;font style=&quot;font-size: 18px;&quot;&gt;&lt;u&gt;Appartenir&lt;/u&gt;&lt;/font&gt;" style="text;html=1;align=center;verticalAlign=middle;resizable=0;points=[];autosize=1;strokeColor=none;fillColor=none;" parent="1" vertex="1">
          <mxGeometry x="-245" y="110" width="110" height="40" as="geometry" />
        </mxCell>
        <mxCell id="kC049FplpGasjoPoZHOe-9" value="images" style="swimlane;whiteSpace=wrap;html=1;" parent="1" vertex="1">
          <mxGeometry x="-1100" y="80" width="200" height="200" as="geometry" />
        </mxCell>
        <mxCell id="kC049FplpGasjoPoZHOe-10" value="produits_id" style="text;html=1;align=center;verticalAlign=middle;resizable=0;points=[];autosize=1;strokeColor=none;fillColor=none;" parent="kC049FplpGasjoPoZHOe-9" vertex="1">
          <mxGeometry x="57.5" y="35" width="80" height="30" as="geometry" />
        </mxCell>
        <mxCell id="kC049FplpGasjoPoZHOe-11" value="image_name" style="text;html=1;align=center;verticalAlign=middle;resizable=0;points=[];autosize=1;strokeColor=none;fillColor=none;" parent="kC049FplpGasjoPoZHOe-9" vertex="1">
          <mxGeometry x="52.5" y="70" width="90" height="30" as="geometry" />
        </mxCell>
        <mxCell id="kC049FplpGasjoPoZHOe-12" value="" style="endArrow=none;html=1;rounded=0;exitX=1;exitY=0.5;exitDx=0;exitDy=0;" parent="1" source="kC049FplpGasjoPoZHOe-15" edge="1">
          <mxGeometry width="50" height="50" relative="1" as="geometry">
            <mxPoint x="-642.5" y="450" as="sourcePoint" />
            <mxPoint x="-750" y="190" as="targetPoint" />
          </mxGeometry>
        </mxCell>
        <mxCell id="kC049FplpGasjoPoZHOe-13" value="1,n" style="text;html=1;align=center;verticalAlign=middle;resizable=0;points=[];autosize=1;strokeColor=none;fillColor=none;" parent="1" vertex="1">
          <mxGeometry x="-790" y="155" width="40" height="30" as="geometry" />
        </mxCell>
        <mxCell id="kC049FplpGasjoPoZHOe-16" value="" style="endArrow=none;html=1;rounded=0;entryX=0;entryY=0.5;entryDx=0;entryDy=0;" parent="1" target="kC049FplpGasjoPoZHOe-15" edge="1">
          <mxGeometry width="50" height="50" relative="1" as="geometry">
            <mxPoint x="-900" y="200" as="sourcePoint" />
            <mxPoint x="-650" y="330" as="targetPoint" />
          </mxGeometry>
        </mxCell>
        <mxCell id="kC049FplpGasjoPoZHOe-15" value="posseder&lt;br&gt;/&lt;br&gt;appartenir" style="ellipse;whiteSpace=wrap;html=1;" parent="1" vertex="1">
          <mxGeometry x="-870" y="150" width="80" height="80" as="geometry" />
        </mxCell>
        <mxCell id="kC049FplpGasjoPoZHOe-21" value="0,1" style="text;html=1;align=center;verticalAlign=middle;resizable=0;points=[];autosize=1;strokeColor=none;fillColor=none;" parent="1" vertex="1">
          <mxGeometry x="-910" y="155" width="40" height="30" as="geometry" />
        </mxCell>
        <mxCell id="rpjDJQLyTsM2QXl8lf3p-4" value="" style="endArrow=none;html=1;rounded=0;exitX=0.5;exitY=0;exitDx=0;exitDy=0;" parent="1" source="Frr1hfQ2MMtZjARR2G04-36" edge="1">
          <mxGeometry width="50" height="50" relative="1" as="geometry">
            <mxPoint x="150" y="430" as="sourcePoint" />
            <mxPoint x="180" y="370" as="targetPoint" />
          </mxGeometry>
        </mxCell>
        <mxCell id="rpjDJQLyTsM2QXl8lf3p-5" value="" style="endArrow=none;html=1;rounded=0;" parent="1" edge="1">
          <mxGeometry width="50" height="50" relative="1" as="geometry">
            <mxPoint x="190" y="590" as="sourcePoint" />
            <mxPoint x="190" y="540" as="targetPoint" />
          </mxGeometry>
        </mxCell>
        <mxCell id="rpjDJQLyTsM2QXl8lf3p-6" value="Appartenir" style="ellipse;whiteSpace=wrap;html=1;aspect=fixed;hachureGap=4;fontFamily=Architects Daughter;fontSource=https%3A%2F%2Ffonts.googleapis.com%2Fcss%3Ffamily%3DArchitects%2BDaughter;fontSize=20;" parent="1" vertex="1">
          <mxGeometry x="550" y="500" width="100" height="100" as="geometry" />
        </mxCell>
        <mxCell id="rpjDJQLyTsM2QXl8lf3p-7" value="" style="endArrow=none;html=1;rounded=0;exitX=0.5;exitY=1;exitDx=0;exitDy=0;entryX=0.5;entryY=0;entryDx=0;entryDy=0;" parent="1" source="AJ8ExckoHPWglMIkNY3l-1" target="rpjDJQLyTsM2QXl8lf3p-6" edge="1">
          <mxGeometry width="50" height="50" relative="1" as="geometry">
            <mxPoint x="140" y="480" as="sourcePoint" />
            <mxPoint x="190" y="430" as="targetPoint" />
          </mxGeometry>
        </mxCell>
        <mxCell id="rpjDJQLyTsM2QXl8lf3p-8" value="" style="endArrow=none;html=1;rounded=0;exitX=0.5;exitY=1;exitDx=0;exitDy=0;" parent="1" edge="1">
          <mxGeometry width="50" height="50" relative="1" as="geometry">
            <mxPoint x="599.09" y="600" as="sourcePoint" />
            <mxPoint x="599" y="710" as="targetPoint" />
          </mxGeometry>
        </mxCell>
        <mxCell id="rpjDJQLyTsM2QXl8lf3p-9" value="" style="endArrow=none;html=1;rounded=0;entryX=1;entryY=0.5;entryDx=0;entryDy=0;" parent="1" target="Frr1hfQ2MMtZjARR2G04-8" edge="1">
          <mxGeometry width="50" height="50" relative="1" as="geometry">
            <mxPoint x="600" y="710" as="sourcePoint" />
            <mxPoint x="470" y="777.5" as="targetPoint" />
          </mxGeometry>
        </mxCell>
        <mxCell id="rpjDJQLyTsM2QXl8lf3p-10" value="1,1" style="text;html=1;align=center;verticalAlign=middle;resizable=0;points=[];autosize=1;strokeColor=none;fillColor=none;" parent="1" vertex="1">
          <mxGeometry x="540" y="375" width="40" height="30" as="geometry" />
        </mxCell>
        <mxCell id="rpjDJQLyTsM2QXl8lf3p-11" value="Avis" style="swimlane;whiteSpace=wrap;html=1;" parent="1" vertex="1">
          <mxGeometry x="-717.5" y="590" width="200" height="200" as="geometry" />
        </mxCell>
        <mxCell id="rpjDJQLyTsM2QXl8lf3p-12" value="Avis" style="text;html=1;align=center;verticalAlign=middle;resizable=0;points=[];autosize=1;strokeColor=none;fillColor=none;fontSize=21;" parent="rpjDJQLyTsM2QXl8lf3p-11" vertex="1">
          <mxGeometry x="72" y="27" width="57" height="37" as="geometry" />
        </mxCell>
        <mxCell id="rpjDJQLyTsM2QXl8lf3p-13" value="id_produit" style="text;html=1;align=center;verticalAlign=middle;resizable=0;points=[];autosize=1;strokeColor=none;fillColor=none;fontSize=21;" parent="rpjDJQLyTsM2QXl8lf3p-11" vertex="1">
          <mxGeometry x="45" y="67" width="110" height="37" as="geometry" />
        </mxCell>
        <mxCell id="rpjDJQLyTsM2QXl8lf3p-14" value="id_client" style="text;html=1;align=center;verticalAlign=middle;resizable=0;points=[];autosize=1;strokeColor=none;fillColor=none;fontSize=21;" parent="rpjDJQLyTsM2QXl8lf3p-11" vertex="1">
          <mxGeometry x="53" y="127" width="95" height="37" as="geometry" />
        </mxCell>
        <mxCell id="uKV8X0jpC7b5QoQMfbNf-1" value="note" style="text;html=1;align=center;verticalAlign=middle;resizable=0;points=[];autosize=1;strokeColor=none;fillColor=none;fontSize=21;" parent="rpjDJQLyTsM2QXl8lf3p-11" vertex="1">
          <mxGeometry x="71" y="157" width="59" height="37" as="geometry" />
        </mxCell>
        <mxCell id="5g2AQStLq35yugbQM2hj-1" value="date" style="text;html=1;align=center;verticalAlign=middle;resizable=0;points=[];autosize=1;strokeColor=none;fillColor=none;fontSize=21;" parent="rpjDJQLyTsM2QXl8lf3p-11" vertex="1">
          <mxGeometry x="71" y="97" width="59" height="37" as="geometry" />
        </mxCell>
        <mxCell id="5g2AQStLq35yugbQM2hj-2" value="Titre" style="text;html=1;align=center;verticalAlign=middle;resizable=0;points=[];autosize=1;strokeColor=none;fillColor=none;fontSize=21;" parent="rpjDJQLyTsM2QXl8lf3p-11" vertex="1">
          <mxGeometry x="71" y="47" width="59" height="37" as="geometry" />
        </mxCell>
        <mxCell id="rpjDJQLyTsM2QXl8lf3p-15" value="" style="endArrow=none;html=1;rounded=0;exitX=1;exitY=0.5;exitDx=0;exitDy=0;entryX=0;entryY=0.5;entryDx=0;entryDy=0;" parent="1" source="rpjDJQLyTsM2QXl8lf3p-17" target="Frr1hfQ2MMtZjARR2G04-8" edge="1">
          <mxGeometry width="50" height="50" relative="1" as="geometry">
            <mxPoint x="-110" y="490" as="sourcePoint" />
            <mxPoint x="-60" y="440" as="targetPoint" />
            <Array as="points">
              <mxPoint x="-70" y="720" />
            </Array>
          </mxGeometry>
        </mxCell>
        <mxCell id="rpjDJQLyTsM2QXl8lf3p-17" value="&lt;font style=&quot;font-size: 25px;&quot;&gt;Laisser&lt;/font&gt;" style="ellipse;whiteSpace=wrap;html=1;aspect=fixed;hachureGap=4;fontFamily=Architects Daughter;fontSource=https%3A%2F%2Ffonts.googleapis.com%2Fcss%3Ffamily%3DArchitects%2BDaughter;fontSize=20;" parent="1" vertex="1">
          <mxGeometry x="-300" y="660" width="100" height="100" as="geometry" />
        </mxCell>
        <mxCell id="rpjDJQLyTsM2QXl8lf3p-18" value="" style="endArrow=none;html=1;rounded=0;exitX=1;exitY=0.5;exitDx=0;exitDy=0;entryX=0;entryY=0.5;entryDx=0;entryDy=0;" parent="1" target="rpjDJQLyTsM2QXl8lf3p-17" edge="1">
          <mxGeometry width="50" height="50" relative="1" as="geometry">
            <mxPoint x="-517.5" y="710" as="sourcePoint" />
            <mxPoint x="-272.5" y="710" as="targetPoint" />
            <Array as="points">
              <mxPoint x="-387.5" y="720" />
            </Array>
          </mxGeometry>
        </mxCell>
        <mxCell id="rpjDJQLyTsM2QXl8lf3p-19" value="0,n" style="text;html=1;align=center;verticalAlign=middle;resizable=0;points=[];autosize=1;strokeColor=none;fillColor=none;" parent="1" vertex="1">
          <mxGeometry y="670" width="40" height="30" as="geometry" />
        </mxCell>
        <mxCell id="rpjDJQLyTsM2QXl8lf3p-20" value="1,1" style="text;html=1;align=center;verticalAlign=middle;resizable=0;points=[];autosize=1;strokeColor=none;fillColor=none;" parent="1" vertex="1">
          <mxGeometry x="-517.5" y="675" width="40" height="30" as="geometry" />
        </mxCell>
        <mxCell id="rpjDJQLyTsM2QXl8lf3p-21" value="" style="endArrow=none;html=1;rounded=0;entryX=0.525;entryY=1.179;entryDx=0;entryDy=0;entryPerimeter=0;exitX=0.5;exitY=0;exitDx=0;exitDy=0;" parent="1" source="rpjDJQLyTsM2QXl8lf3p-22" target="v7OVMKoYqWH1p72j22wS-6" edge="1">
          <mxGeometry width="50" height="50" relative="1" as="geometry">
            <mxPoint x="-617.5" y="400" as="sourcePoint" />
            <mxPoint x="-567.5" y="350" as="targetPoint" />
          </mxGeometry>
        </mxCell>
        <mxCell id="rpjDJQLyTsM2QXl8lf3p-22" value="&lt;font style=&quot;font-size: 25px;&quot;&gt;Laisser&lt;/font&gt;" style="ellipse;whiteSpace=wrap;html=1;aspect=fixed;hachureGap=4;fontFamily=Architects Daughter;fontSource=https%3A%2F%2Ffonts.googleapis.com%2Fcss%3Ffamily%3DArchitects%2BDaughter;fontSize=20;" parent="1" vertex="1">
          <mxGeometry x="-667.5" y="410" width="100" height="100" as="geometry" />
        </mxCell>
        <mxCell id="rpjDJQLyTsM2QXl8lf3p-23" value="" style="endArrow=none;html=1;rounded=0;entryX=0.5;entryY=1;entryDx=0;entryDy=0;exitX=0.5;exitY=0;exitDx=0;exitDy=0;" parent="1" source="rpjDJQLyTsM2QXl8lf3p-11" target="rpjDJQLyTsM2QXl8lf3p-22" edge="1">
          <mxGeometry width="50" height="50" relative="1" as="geometry">
            <mxPoint x="-642.5" y="575" as="sourcePoint" />
            <mxPoint x="-592.5" y="525" as="targetPoint" />
          </mxGeometry>
        </mxCell>
        <mxCell id="rpjDJQLyTsM2QXl8lf3p-24" value="1,n" style="text;html=1;align=center;verticalAlign=middle;resizable=0;points=[];autosize=1;strokeColor=none;fillColor=none;" parent="1" vertex="1">
          <mxGeometry x="-607.5" y="555" width="40" height="30" as="geometry" />
        </mxCell>
        <mxCell id="rpjDJQLyTsM2QXl8lf3p-25" value="0,1" style="text;html=1;align=center;verticalAlign=middle;resizable=0;points=[];autosize=1;strokeColor=none;fillColor=none;" parent="1" vertex="1">
          <mxGeometry x="-620" y="330" width="40" height="30" as="geometry" />
        </mxCell>
      </root>
    </mxGraphModel>
  </diagram>
</mxfile>
